{"title":"The Bourne Legacy 2012 TS V2 XviD Feel-Free","uid":7590767,"size":1234840856,"categoryP":"video","categoryS":"movies","magnet":"?xt=urn:btih:c9f1d94b3bf5aa4b4863b48d8a58d775bd8d9ab2&amp;dn=The+Bourne+Legacy+2012+TS+V2+XviD+Feel-Free&amp;tr=udp%3A%2F%2Ftracker.openbittorrent.com%3A80&amp;tr=udp%3A%2F%2Fopen.demonii.com%3A1337&amp;tr=udp%3A%2F%2Ftracker.coppersurfer.tk%3A6969&amp;tr=udp%3A%2F%2Fexodus.desync.com%3A6969","seeders":0,"leechers":0,"uploader":"Gh0stNet","files":9,"time":1346533620,"description":"Genre:Action | Adventure | Mystery\nLanguage:English\nIMDb:http://www.imdb.com/title/tt1194173/\nSource:1080p TS XviD 5 1 AC3 - MATiNE/ADTRG Thanks\nEncoder:Tony\n\nFormat : AVI\nFormat/Info : Audio Video Interleave\nFile size : 1.15 GiB\nDuration : 2h 5mn\nOverall bit rate : 1 314 Kbps\n\nVideo\nID : 0\nFormat : MPEG-4 Visual\nFormat profile : Advanced Simple@L5\nFormat settings, BVOP : 1\nFormat settings, QPel : No\nFormat settings, GMC : No warppoints\nFormat settings, Matrix : Default (H.263)\nCodec ID : XVID\nCodec ID/Hint : XviD\nDuration : 2h 5mn\nBit rate : 1 144 Kbps\nWidth : 640 pixels\nHeight : 272 pixels\nDisplay aspect ratio : 2.35:1\nFrame rate : 25.000 fps\nColor space : YUV\nChroma subsampling : 4:2:0\nBit depth : 8 bits\nScan type : Progressive\nCompression mode : Lossy\nBits/(Pixel*Frame) : 0.263\nStream size : 1.00 GiB (87%)\nWriting library : XviD 1.2.1 (UTC 2008-12-04)\n\nAudio\nID : 1\nFormat : AC-3\nFormat/Info : Audio Coding 3\nMode extension : CM (complete main)\nCodec ID : 2000\nDuration : 2h 5mn\nBit rate mode : Constant\nBit rate : 160 Kbps\nChannel(s) : 2 channels\nChannel positions : Front: L R\nSampling rate : 48.0 KHz\nBit depth : 16 bits\nCompression mode : Lossy\nStream size : 143 MiB (12%)\nAlignment : Aligned on interleaves\nInterleave, duration : 40 ms (1.00 video frame)\nInterleave, preload duration : 512 ms\n\n\nPlot:\nAn expansion of the universe from Robert Ludlum's novels, centered on a new hero whose stakes have been triggered by the events of the previous three films.\n\n\n","torrent":{"xt":"urn:btih:c9f1d94b3bf5aa4b4863b48d8a58d775bd8d9ab2","amp;dn":"The+Bourne+Legacy+2012+TS+V2+XviD+Feel-Free","amp;tr":["udp%3A%2F%2Ftracker.openbittorrent.com%3A80","udp%3A%2F%2Fopen.demonii.com%3A1337","udp%3A%2F%2Ftracker.coppersurfer.tk%3A6969","udp%3A%2F%2Fexodus.desync.com%3A6969"],"infoHash":"c9f1d94b3bf5aa4b4863b48d8a58d775bd8d9ab2","infoHashBuffer":{"type":"Buffer","data":[201,241,217,75,59,245,170,75,72,99,180,141,138,88,215,117,189,141,154,178]},"announce":[],"urlList":[]}}